<svg xmlns="http://www.w3.org/2000/svg" xmlns:xlink="http://www.w3.org/1999/xlink" width="500" zoomAndPan="magnify" viewBox="0 0 375 374.999991" height="500" preserveAspectRatio="xMidYMid meet" version="1.0"><path fill="#e7f2f1" d="M 366.414062 336.027344 L 278.566406 247.832031 L 273.027344 242.265625 C 270.445312 239.65625 266.242188 239.65625 263.632812 242.265625 L 262.414062 243.511719 L 243.300781 262.710938 L 243.269531 262.683594 L 242.054688 263.929688 C 239.472656 266.539062 239.472656 270.746094 242.054688 273.355469 L 247.621094 278.925781 L 335.46875 367.121094 C 343.359375 375.066406 356.175781 375.066406 364.09375 367.121094 L 366.414062 364.769531 C 374.332031 356.851562 374.332031 343.976562 366.414062 336.027344 Z M 366.414062 336.027344 " fill-opacity="1" fill-rule="nonzero"/><path fill="#e7f2f1" d="M 244.199219 225.210938 C 285.613281 173.992188 282.597656 98.617188 235.121094 50.9375 C 184.425781 0.0390625 102.203125 0.0390625 51.507812 50.9375 C 0.8125 101.863281 0.8125 184.375 51.507812 235.304688 C 98.984375 282.957031 174.070312 286 225.058594 244.410156 L 243.269531 262.683594 L 262.414062 243.511719 Z M 244.199219 225.210938 " fill-opacity="1" fill-rule="nonzero"/><path fill="#d6eae8" d="M 222.765625 70.308594 L 136.949219 250.90625 C 125.898438 250.269531 114.90625 247.921875 104.464844 243.859375 L 196.808594 49.398438 C 204.871094 54.039062 212.472656 59.8125 219.375 66.742188 C 220.535156 67.902344 221.664062 69.09375 222.765625 70.308594 Z M 222.765625 70.308594 " fill-opacity="1" fill-rule="nonzero"/><path fill="#c3ddda" d="M 196.808594 49.398438 L 104.464844 243.859375 C 90.894531 238.609375 78.191406 230.488281 67.257812 219.5 C 65.195312 217.4375 63.226562 215.292969 61.367188 213.117188 L 62.035156 212.566406 L 146.316406 35.128906 C 163.804688 35.625 181.175781 40.378906 196.808594 49.398438 Z M 196.808594 49.398438 " fill-opacity="1" fill-rule="nonzero"/><path fill="#d6eae8" d="M 146.316406 35.128906 L 62.035156 212.566406 L 61.367188 213.117188 C 52.695312 202.878906 46.199219 191.425781 41.9375 179.328125 L 107.539062 41.222656 C 120.039062 36.8125 133.207031 34.78125 146.316406 35.128906 Z M 146.316406 35.128906 " fill-opacity="1" fill-rule="nonzero"/><path fill="#655f68" d="M 136.949219 250.90625 C 166.558594 252.675781 196.75 242.207031 219.375 219.5 C 260.238281 178.460938 261.367188 112.710938 222.765625 70.308594 C 221.664062 69.09375 220.535156 67.902344 219.375 66.742188 C 212.472656 59.8125 204.871094 54.039062 196.808594 49.398438 C 181.175781 40.378906 163.804688 35.625 146.316406 35.128906 C 133.207031 34.78125 120.039062 36.8125 107.539062 41.222656 C 92.835938 46.414062 79.03125 54.9375 67.257812 66.742188 C 36.921875 97.195312 28.480469 141.308594 41.9375 179.328125 C 46.199219 191.425781 52.695312 202.878906 61.367188 213.117188 C 63.226562 215.292969 65.195312 217.4375 67.257812 219.5 C 78.191406 230.488281 90.894531 238.609375 104.464844 243.859375 C 114.90625 247.921875 125.898438 250.269531 136.949219 250.90625 Z M 244.199219 225.210938 C 241.386719 228.691406 238.339844 232.054688 235.121094 235.304688 C 231.902344 238.554688 228.539062 241.570312 225.058594 244.410156 C 174.070312 286 98.984375 282.957031 51.507812 235.304688 C 0.8125 184.375 0.8125 101.863281 51.507812 50.9375 C 102.203125 0.0390625 184.425781 0.0390625 235.121094 50.9375 C 282.597656 98.617188 285.613281 173.992188 244.199219 225.210938 Z M 244.199219 225.210938 " fill-opacity="1" fill-rule="nonzero"/><path fill="#604533" d="M 366.414062 336.03125 C 374.332031 343.976562 374.332031 356.851562 366.414062 364.769531 L 364.09375 367.121094 C 356.175781 375.066406 343.359375 375.066406 335.46875 367.121094 L 247.621094 278.925781 L 278.566406 247.832031 Z M 366.414062 336.03125 " fill-opacity="1" fill-rule="nonzero"/><path fill="#655f68" d="M 273.027344 242.265625 L 278.566406 247.832031 L 247.621094 278.925781 L 242.054688 273.355469 C 239.472656 270.746094 239.472656 266.539062 242.054688 263.929688 L 243.269531 262.683594 L 243.300781 262.710938 L 262.414062 243.511719 L 263.632812 242.265625 C 266.242188 239.65625 270.445312 239.65625 273.027344 242.265625 Z M 273.027344 242.265625 " fill-opacity="1" fill-rule="nonzero"/><path fill="#aba9a0" d="M 244.199219 225.210938 L 262.414062 243.511719 L 243.269531 262.683594 L 225.058594 244.410156 C 228.539062 241.570312 231.902344 238.554688 235.121094 235.304688 C 238.339844 232.054688 241.386719 228.691406 244.199219 225.210938 Z M 244.199219 225.210938 " fill-opacity="1" fill-rule="nonzero"/><path fill="#b8d3cf" d="M 108.613281 235.128906 L 104.464844 243.859375 C 97.855469 241.308594 91.445312 238.058594 85.324219 234.117188 C 92.546875 234.78125 100.378906 235.21875 108.613281 235.128906 Z M 108.613281 235.128906 " fill-opacity="1" fill-rule="nonzero"/><path fill="#c3ddda" d="M 146.375 231.042969 L 136.949219 250.90625 C 125.898438 250.269531 114.90625 247.921875 104.464844 243.859375 L 108.613281 235.128906 C 120.621094 235.042969 133.46875 233.914062 146.375 231.042969 Z M 146.375 231.042969 " fill-opacity="1" fill-rule="nonzero"/><path fill="#d6eae8" d="M 248.839844 122.253906 C 255.539062 156.359375 245.707031 193.046875 219.375 219.5 C 196.75 242.207031 166.558594 252.675781 136.949219 250.90625 L 146.375 231.042969 C 189.09375 221.644531 232.511719 193.484375 248.839844 122.253906 Z M 248.839844 122.253906 " fill-opacity="1" fill-rule="nonzero"/><path fill="#5d5560" d="M 244.199219 225.210938 C 241.386719 228.691406 238.339844 232.054688 235.121094 235.304688 C 231.902344 238.554688 228.539062 241.570312 225.058594 244.410156 C 174.070312 286 98.984375 282.957031 51.507812 235.304688 C 48.609375 232.375 45.851562 229.359375 43.300781 226.253906 C 43.300781 226.253906 60.613281 231.765625 85.324219 234.117188 C 91.445312 238.058594 97.855469 241.308594 104.464844 243.859375 C 114.90625 247.921875 125.898438 250.269531 136.949219 250.90625 C 166.558594 252.675781 196.75 242.207031 219.375 219.5 C 245.707031 193.046875 255.539062 156.359375 248.839844 122.253906 C 251.941406 108.679688 254.089844 93.542969 255.046875 76.691406 C 282.367188 122.921875 278.742188 182.492188 244.199219 225.210938 Z M 244.199219 225.210938 " fill-opacity="1" fill-rule="nonzero"/></svg>